# xmcd CD Database Entry
#
# Track frame offsets:
# 150
# 26336
# 33433
# 48802
# 85275
# 99974
# 104141
# 147041
# 165723
# 184067
# 192893
# 207878
# 230710
# 247871
# 265368
# 280747
#
# Disc length: 3989 seconds
#
# Revision: 4
# Processed by: cddbd v1.4PL0 Copyright (c) Steve Scherf et al.
# Submitted via: tcd 2.0b
#
DISCID=d60f9310
DTITLE=dance class
DYEAR=1900
DGENRE=
TTITLE0=stretch
TTITLE1=
TTITLE2=
TTITLE3=develope
TTITLE4=round de jambe
TTITLE5=coupes
TTITLE6=
TTITLE7=warmup jump and grande batement
TTITLE8=
TTITLE9=plies
TTITLE10=
TTITLE11=frappes
TTITLE12=
TTITLE13=tendues and glissades
TTITLE14=round de jambe laire and pirouettes at barre
TTITLE15=jumps
EXTD=
EXTT0=
EXTT1=
EXTT2=
EXTT3=
EXTT4=
EXTT5=
EXTT6=
EXTT7=
EXTT8=
EXTT9=
EXTT10=
EXTT11=
EXTT12=
EXTT13=
EXTT14=
EXTT15=
PLAYORDER=
